<svg width="20" height="20" fill="none" xmlns="http://www.w3.org/2000/svg"><path d="M2.568 0h14.865A2.574 2.574 0 0 1 20 2.567v14.867A2.573 2.573 0 0 1 17.433 20H2.568A2.574 2.574 0 0 1 0 17.434V2.567A2.575 2.575 0 0 1 2.568 0ZM14.57 2.221c-.496 0-.9.406-.9.902v2.154c0 .496.404.901.9.901h2.26c.495 0 .9-.405.9-.9V3.122a.904.904 0 0 0-.9-.902h-2.26Zm3.169 6.237h-1.76c.167.545.258 1.12.258 1.717 0 3.326-2.785 6.023-6.218 6.023s-6.217-2.697-6.217-6.023c0-.597.091-1.172.257-1.717H2.223v8.45c0 .437.358.793.795.793h13.927a.795.795 0 0 0 .794-.794v-8.45Zm-7.72-2.393c-2.217 0-4.016 1.742-4.016 3.893 0 2.148 1.799 3.892 4.016 3.892 2.218 0 4.017-1.744 4.017-3.892 0-2.151-1.799-3.893-4.017-3.893Z" fill="#000"/></svg>