<svg width="20" height="20" fill="none" xmlns="http://www.w3.org/2000/svg"><path d="M4.655 6.426H.64a.323.323 0 0 0-.322.324v12.927c0 .178.144.323.322.323h4.015a.323.323 0 0 0 .323-.323V6.75a.323.323 0 0 0-.323-.324ZM2.65 0a2.654 2.654 0 0 0 0 5.306A2.653 2.653 0 0 0 2.65 0ZM14.868 6.105c-1.613 0-2.805.695-3.528 1.484v-.84a.323.323 0 0 0-.322-.323H7.173a.323.323 0 0 0-.323.324v12.927c0 .178.144.323.323.323h4.006a.323.323 0 0 0 .322-.323V13.28c0-2.155.585-2.995 2.084-2.995 1.632 0 1.762 1.346 1.762 3.106v6.285c0 .178.145.323.323.323h4.007a.323.323 0 0 0 .323-.323v-7.091c0-3.205-.61-6.481-5.132-6.481Z" fill="#000"/></svg>